<svg width="300" height="300" viewBox="0 0 300 300" fill="none" xmlns="http://www.w3.org/2000/svg">
<path d="M114.023 18.75H185.977C198.105 18.75 208.828 26.4961 212.637 37.9805L218.73 56.25H262.5C283.184 56.25 300 73.0664 300 93.75V243.75C300 264.434 283.184 281.25 262.5 281.25H37.5C16.7871 281.25 0 264.434 0 243.75V93.75C0 73.0664 16.7871 56.25 37.5 56.25H81.2695L87.3633 37.9805C91.1719 26.4961 101.895 18.75 114.023 18.75ZM150 225C181.055 225 206.25 199.805 206.25 168.75C206.25 137.168 181.055 112.5 150 112.5C118.418 112.5 93.75 137.168 93.75 168.75C93.75 199.805 118.418 225 150 225Z" fill="white"/>
<path d="M195.5 169C195.5 172.87 192.365 176.002 188.5 176.002H157V207.502C157 211.372 153.865 214.5 150 214.5C146.135 214.5 143 211.372 143 207.502V176.002H111.5C107.635 176.002 104.5 172.87 104.5 169C104.5 165.13 107.635 162.002 111.5 162.002H143V130.502C143 126.633 146.135 123.5 150 123.5C153.865 123.5 157 126.633 157 130.502V162.002H188.5C192.372 162 195.5 165.128 195.5 169Z" fill="white"/>
</svg>
