<?xml version="1.0" encoding="utf-8"?>
<!-- Generator: Adobe Illustrator 26.0.3, SVG Export Plug-In . SVG Version: 6.00 Build 0)  -->
<svg version="1.1" id="Layer_1" xmlns="http://www.w3.org/2000/svg" xmlns:xlink="http://www.w3.org/1999/xlink" x="0px" y="0px"
	 viewBox="0 0 268 83" style="enable-background:new 0 0 268 83;" xml:space="preserve">
<style type="text/css">
	.st0{enable-background:new    ;}
	.st1{fill:#FFFFFF;}
</style>
<g class="st0">
	<path class="st1" d="M79.1,67.7h1.2c2.5,0,4.4,0.6,5.7,1.9c1.3,1.3,2,3.2,2,5.6c0,2.7-0.7,4.7-2.1,5.9c-1.4,1.2-3.6,1.8-6.8,1.8
		h-21c-3.2,0-5.5-0.6-6.8-1.8c-1.4-1.2-2-3.2-2-6c0-2.7,0.7-4.6,2-5.8c1.4-1.2,3.6-1.7,6.8-1.7h2.4l-2.9-8.2H27.5l-3,8.2h2.4
		c3.2,0,5.4,0.6,6.8,1.8c1.4,1.2,2.1,3.1,2.1,5.8c0,2.7-0.7,4.7-2.1,5.9c-1.4,1.2-3.6,1.8-6.8,1.8h-18c-3.2,0-5.5-0.6-6.8-1.8
		S0,78,0,75.2c0-2.5,0.7-4.3,2-5.6c1.3-1.3,3.2-1.9,5.7-1.9h1.2l18.7-52.1H22c-3.2,0-5.4-0.6-6.8-1.8c-1.4-1.2-2.1-3.2-2.1-5.9
		c0-2.7,0.7-4.7,2.1-5.9c1.4-1.2,3.6-1.8,6.8-1.8h26.2c4.1,0,7.1,2.2,8.7,6.7v0.2L79.1,67.7z M42.5,15.6L32.3,45.1h20.3L42.5,15.6z"
		/>
	<path class="st1" d="M144.2,31.8h23.2c2.2,0,4,0.7,5.4,2c1.4,1.3,2.1,3,2.1,5.1c0,2.1-0.7,3.8-2.1,5.2c-1.4,1.4-3.2,2-5.4,2h-23.2
		v24.2c0,2.2-0.7,4-2.1,5.4s-3.1,2.1-5.3,2.1c-2,0-3.7-0.7-5.1-2.2c-1.4-1.5-2.1-3.3-2.1-5.3V46.1h-23.2c-2.2,0-4-0.7-5.4-2
		c-1.4-1.4-2.1-3.1-2.1-5.2c0-2,0.7-3.6,2.2-5c1.5-1.4,3.2-2.1,5.3-2.1h23.2V7.6c0-2.2,0.7-4.1,2-5.5c1.4-1.4,3.1-2.1,5.2-2.1
		c2.1,0,3.9,0.7,5.3,2.2s2.1,3.3,2.1,5.4V31.8z"/>
	<path class="st1" d="M237.3,31.8h23.2c2.2,0,4,0.7,5.4,2c1.4,1.3,2.1,3,2.1,5.1c0,2.1-0.7,3.8-2.1,5.2c-1.4,1.4-3.2,2-5.4,2h-23.2
		v24.2c0,2.2-0.7,4-2.1,5.4s-3.1,2.1-5.3,2.1c-2,0-3.7-0.7-5.1-2.2c-1.4-1.5-2.1-3.3-2.1-5.3V46.1h-23.2c-2.2,0-4-0.7-5.4-2
		c-1.4-1.4-2.1-3.1-2.1-5.2c0-2,0.7-3.6,2.2-5s3.2-2.1,5.3-2.1h23.2V7.6c0-2.2,0.7-4.1,2-5.5c1.4-1.4,3.1-2.1,5.2-2.1
		c2.1,0,3.9,0.7,5.3,2.2s2.1,3.3,2.1,5.4V31.8z"/>
</g>
</svg>
