<svg width="268" height="83" viewBox="0 0 268 83" fill="none" xmlns="http://www.w3.org/2000/svg">
<path d="M79.1 67.7H80.3C82.8 67.7 84.7 68.3 86 69.6C87.3 70.9 88 72.8 88 75.2C88 77.9 87.3 79.9 85.9 81.1C84.5 82.3 82.3 82.9 79.1 82.9H58.1C54.9 82.9 52.6 82.3 51.3 81.1C49.9 79.9 49.3 77.9 49.3 75.1C49.3 72.4 50 70.5 51.3 69.3C52.7 68.1 54.9 67.6 58.1 67.6H60.5L57.6 59.4H27.5L24.5 67.6H26.9C30.1 67.6 32.3 68.2 33.7 69.4C35.1 70.6 35.8 72.5 35.8 75.2C35.8 77.9 35.1 79.9 33.7 81.1C32.3 82.3 30.1 82.9 26.9 82.9H8.9C5.7 82.9 3.4 82.3 2.1 81.1C0.8 79.9 0 78 0 75.2C0 72.7 0.7 70.9 2 69.6C3.3 68.3 5.2 67.7 7.7 67.7H8.9L27.6 15.6H22C18.8 15.6 16.6 15 15.2 13.8C13.8 12.6 13.1 10.6 13.1 7.9C13.1 5.2 13.8 3.2 15.2 2C16.6 0.799997 18.8 0.199997 22 0.199997H48.2C52.3 0.199997 55.3 2.4 56.9 6.9V7.1L79.1 67.7ZM42.5 15.6L32.3 45.1H52.6L42.5 15.6Z" fill="#DC4233"/>
<path d="M144.2 31.8H167.4C169.6 31.8 171.4 32.5 172.8 33.8C174.2 35.1 174.9 36.8 174.9 38.9C174.9 41 174.2 42.7 172.8 44.1C171.4 45.5 169.6 46.1 167.4 46.1H144.2V70.3C144.2 72.5 143.5 74.3 142.1 75.7C140.7 77.1 139 77.8 136.8 77.8C134.8 77.8 133.1 77.1 131.7 75.6C130.3 74.1 129.6 72.3 129.6 70.3V46.1H106.4C104.2 46.1 102.4 45.4 101 44.1C99.6 42.7 98.9 41 98.9 38.9C98.9 36.9 99.6 35.3 101.1 33.9C102.6 32.5 104.3 31.8 106.4 31.8H129.6V7.6C129.6 5.4 130.3 3.5 131.6 2.1C133 0.7 134.7 0 136.8 0C138.9 0 140.7 0.7 142.1 2.2C143.5 3.7 144.2 5.5 144.2 7.6V31.8Z" fill="#DC4233"/>
<path d="M237.3 31.8H260.5C262.7 31.8 264.5 32.5 265.9 33.8C267.3 35.1 268 36.8 268 38.9C268 41 267.3 42.7 265.9 44.1C264.5 45.5 262.7 46.1 260.5 46.1H237.3V70.3C237.3 72.5 236.6 74.3 235.2 75.7C233.8 77.1 232.1 77.8 229.9 77.8C227.9 77.8 226.2 77.1 224.8 75.6C223.4 74.1 222.7 72.3 222.7 70.3V46.1H199.5C197.3 46.1 195.5 45.4 194.1 44.1C192.7 42.7 192 41 192 38.9C192 36.9 192.7 35.3 194.2 33.9C195.7 32.5 197.4 31.8 199.5 31.8H222.7V7.6C222.7 5.4 223.4 3.5 224.7 2.1C226.1 0.7 227.8 0 229.9 0C232 0 233.8 0.7 235.2 2.2C236.6 3.7 237.3 5.5 237.3 7.6V31.8Z" fill="#DC4233"/>
</svg>
